<svg width="27" height="35" viewBox="0 0 27 35" fill="none" xmlns="http://www.w3.org/2000/svg">
<path d="M21.2134 17.2846C21.2134 17.048 21.2031 16.8218 21.1826 16.5852L23.0955 15.1351C23.5069 14.8266 23.62 14.2506 23.3629 13.7981L21.4397 10.4762C21.1826 10.0237 20.6272 9.83854 20.1541 10.0442L17.9429 10.9801C17.5624 10.7127 17.1613 10.4762 16.7396 10.2808L16.4414 7.90504C16.3797 7.39081 15.9374 7 15.4232 7H11.5871C11.0626 7 10.6203 7.39081 10.5586 7.90504L10.2604 10.2808C9.83869 10.4762 9.43759 10.7127 9.05706 10.9801L6.84588 10.0442C6.37279 9.83854 5.81742 10.0237 5.56031 10.4762L3.63709 13.8084C3.37998 14.2609 3.49311 14.8266 3.90449 15.1454L5.81742 16.5955C5.79685 16.8218 5.78657 17.048 5.78657 17.2846C5.78657 17.5211 5.79685 17.7474 5.81742 17.9839L3.90449 19.4341C3.49311 19.7426 3.37998 20.3185 3.63709 20.771L5.56031 24.093C5.81742 24.5455 6.37279 24.7306 6.84588 24.5249L9.05706 23.589C9.43759 23.8564 9.83869 24.093 10.2604 24.2884L10.5586 26.6641C10.6203 27.1783 11.0626 27.5692 11.5768 27.5692H15.4129C15.9272 27.5692 16.3694 27.1783 16.4311 26.6641L16.7294 24.2884C17.151 24.093 17.5521 23.8564 17.9327 23.589L20.1438 24.5249C20.6169 24.7306 21.1723 24.5455 21.4294 24.093L23.3526 20.771C23.6097 20.3185 23.4966 19.7529 23.0852 19.4341L21.1723 17.9839C21.2031 17.7474 21.2134 17.5211 21.2134 17.2846ZM13.5411 20.8842C11.5562 20.8842 9.94154 19.2695 9.94154 17.2846C9.94154 15.2997 11.5562 13.685 13.5411 13.685C15.5261 13.685 17.1407 15.2997 17.1407 17.2846C17.1407 19.2695 15.5261 20.8842 13.5411 20.8842Z" fill="#BEBAB3"/>
</svg>
