<svg width="29" height="36" viewBox="0 0 29 36" fill="none" xmlns="http://www.w3.org/2000/svg">
<path d="M14.5 14.6667H18.9444C19.5556 14.6667 20.0556 14.1667 20.0556 13.5556C20.0556 12.9444 19.5556 12.4444 18.9444 12.4444H14.5C13.8889 12.4444 13.3889 12.9444 13.3889 13.5556C13.3889 14.1667 13.8889 14.6667 14.5 14.6667Z" fill="#BEBAB3"/>
<path d="M14.5 19.1111H18.9444C19.5556 19.1111 20.0556 18.6111 20.0556 18C20.0556 17.3889 19.5556 16.8889 18.9444 16.8889H14.5C13.8889 16.8889 13.3889 17.3889 13.3889 18C13.3889 18.6111 13.8889 19.1111 14.5 19.1111Z" fill="#BEBAB3"/>
<path d="M14.5 23.5556H18.9444C19.5556 23.5556 20.0556 23.0556 20.0556 22.4444C20.0556 21.8333 19.5556 21.3333 18.9444 21.3333H14.5C13.8889 21.3333 13.3889 21.8333 13.3889 22.4444C13.3889 23.0556 13.8889 23.5556 14.5 23.5556Z" fill="#BEBAB3"/>
<path d="M10.0556 14.6667C10.6692 14.6667 11.1667 14.1692 11.1667 13.5556C11.1667 12.9419 10.6692 12.4444 10.0556 12.4444C9.44191 12.4444 8.94444 12.9419 8.94444 13.5556C8.94444 14.1692 9.44191 14.6667 10.0556 14.6667Z" fill="#BEBAB3"/>
<path d="M10.0556 19.1111C10.6692 19.1111 11.1667 18.6137 11.1667 18C11.1667 17.3864 10.6692 16.8889 10.0556 16.8889C9.44191 16.8889 8.94444 17.3864 8.94444 18C8.94444 18.6137 9.44191 19.1111 10.0556 19.1111Z" fill="#BEBAB3"/>
<path d="M10.0556 23.5556C10.6692 23.5556 11.1667 23.0581 11.1667 22.4444C11.1667 21.8308 10.6692 21.3333 10.0556 21.3333C9.44191 21.3333 8.94444 21.8308 8.94444 22.4444C8.94444 23.0581 9.44191 23.5556 10.0556 23.5556Z" fill="#BEBAB3"/>
<path d="M22.2778 8H6.72222C5.5 8 4.5 9 4.5 10.2222V25.7778C4.5 27 5.5 28 6.72222 28H22.2778C23.5 28 24.5 27 24.5 25.7778V10.2222C24.5 9 23.5 8 22.2778 8ZM22.2778 25.7778H6.72222V10.2222H22.2778V25.7778Z" fill="#BEBAB3"/>
</svg>
