<svg width="21" height="21" viewBox="0 0 21 21" fill="none" xmlns="http://www.w3.org/2000/svg">
<path d="M19.6719 18.0678L13.3466 11.7426C14.6322 9.97923 15.201 7.66982 14.4615 5.21253C13.6879 2.6756 11.5378 0.684741 8.94397 0.161428C3.65397 -0.907949 -0.907952 3.66535 0.161425 8.94398C0.684738 11.5492 2.6756 13.6993 5.21253 14.4615C7.66982 15.201 9.97922 14.6322 11.7426 13.3466L18.0678 19.6719C18.5115 20.1156 19.2282 20.1156 19.6719 19.6719C20.1156 19.2282 20.1156 18.5115 19.6719 18.0678ZM2.27743 7.39679C2.27743 4.56408 4.56408 2.27743 7.39679 2.27743C10.2295 2.27743 12.5162 4.56408 12.5162 7.39679C12.5162 10.2295 10.2295 12.5162 7.39679 12.5162C4.56408 12.5162 2.27743 10.2295 2.27743 7.39679Z" fill="#3C3A36"/>
</svg>
